HIERARCHY
ROOT root
{
	OFFSET	0	13.1	24.9
	CHANNELS 6  Xposition Yposition Zposition Xrotation Yrotation Zrotation
	JOINT spine_1
	{
		OFFSET	0	9.99999	0
		CHANNELS 3  Xrotation Yrotation Zrotation
		JOINT spine_2
		{
			OFFSET	0	112	-10
			CHANNELS 3  Xrotation Yrotation Zrotation
			JOINT spine_3
			{
				OFFSET	0	206.5	19.3
				CHANNELS 3  Xrotation Yrotation Zrotation
				JOINT spine_4
				{
					OFFSET	0	110.4	14.6
					CHANNELS 3  Xrotation Yrotation Zrotation
					JOINT neck_1
					{
						OFFSET	0	71.8	-50.3
						CHANNELS 3  Xrotation Yrotation Zrotation
						JOINT neck_2
						{
							OFFSET	0	86.2	-25.8
							CHANNELS 3  Xrotation Yrotation Zrotation
							JOINT head_ee
							{
								OFFSET	0	179.8	-8.7
								CHANNELS 3  Xrotation Yrotation Zrotation
								End Site
								{
									OFFSET	1	0	0
								}
							}
						}
					}
					JOINT left_clavicle
					{
						OFFSET	-43.2	22.4	-70.8
						CHANNELS 3  Xrotation Yrotation Zrotation
						JOINT left_shoulder
						{
							OFFSET	-93.9	-5.79999	48.7
							CHANNELS 3  Xrotation Yrotation Zrotation
							JOINT left_elbow
							{
								OFFSET	-291.4	-30.8	15.2
								CHANNELS 3  Xrotation Yrotation Zrotation
								JOINT left_lowarm_twist
								{
									OFFSET	-110.7	-3.89999	13.6
									CHANNELS 3  Xrotation Yrotation Zrotation
									JOINT left_hand
									{
										OFFSET	-110.7	-3.89999	13.6
										CHANNELS 3  Xrotation Yrotation Zrotation
										JOINT left_ee
										{
											OFFSET	-80.8	-5.10001	12.1
											CHANNELS 3  Xrotation Yrotation Zrotation
											End Site
											{
												OFFSET	1	0	0
											}
										}
									}
								}
							}
						}
					}
					JOINT right_clavicle
					{
						OFFSET	43.2	22.4	-70.8
						CHANNELS 3  Xrotation Yrotation Zrotation
						JOINT right_shoulder
						{
							OFFSET	93.9	-5.79999	48.7
							CHANNELS 3  Xrotation Yrotation Zrotation
							JOINT right_elbow
							{
								OFFSET	291.4	-30.8	15.2
								CHANNELS 3  Xrotation Yrotation Zrotation
								JOINT right_lowarm_twist
								{
									OFFSET	110.7	-3.89999	13.6
									CHANNELS 3  Xrotation Yrotation Zrotation
									JOINT right_hand
									{
										OFFSET	110.7	-3.89999	13.6
										CHANNELS 3  Xrotation Yrotation Zrotation
										JOINT right_ee
										{
											OFFSET	80.8	-5.10001	12.1
											CHANNELS 3  Xrotation Yrotation Zrotation
											End Site
											{
												OFFSET	1	0	0
											}
										}
									}
								}
							}
						}
					}
				}
			}
		}
	}
	JOINT left_hip
	{
		OFFSET	-82.8	-127.5	0.300001
		CHANNELS 3  Xrotation Yrotation Zrotation
		JOINT left_knee
		{
			OFFSET	-28.2	-396.7	2.2
			CHANNELS 3  Xrotation Yrotation Zrotation
			JOINT left_ankle
			{
				OFFSET	-11.7	-411.3	35.4
				CHANNELS 3  Xrotation Yrotation Zrotation
				JOINT left_toes
				{
					OFFSET	0	-60	-88.6
					CHANNELS 3  Xrotation Yrotation Zrotation
					JOINT left_foot_ee
					{
						OFFSET	-22.5	-16.5	-42.2
						CHANNELS 3  Xrotation Yrotation Zrotation
						End Site
						{
							OFFSET	1	0	0
						}
					}
				}
			}
		}
	}
	JOINT right_hip
	{
		OFFSET	82.8	-127.5	0.300001
		CHANNELS 3  Xrotation Yrotation Zrotation
		JOINT right_knee
		{
			OFFSET	28.2	-396.7	2.2
			CHANNELS 3  Xrotation Yrotation Zrotation
			JOINT right_ankle
			{
				OFFSET	11.7	-411.3	35.4
				CHANNELS 3  Xrotation Yrotation Zrotation
				JOINT right_toes
				{
					OFFSET	0	-60	-88.6
					CHANNELS 3  Xrotation Yrotation Zrotation
					JOINT right_foot_ee
					{
						OFFSET	22.5	-16.5	-42.2
						CHANNELS 3  Xrotation Yrotation Zrotation
						End Site
						{
							OFFSET	1	0	0
						}
					}
				}
			}
		}
	}
}
MOTION
Frames: 11
Frame Time: 0.02
2514.04210657 761.014 -1552.8783622 8.5444613889 70.6807076932 -9.65212914236 0.0925971 -0.0108686 0.896049 0.0930414 -0.0678622 0.893542 0.0921402 -0.252787 0.859724 0.0911263 -0.113843 0.888855 -3.48277 6.90634 -1.29233 -3.40098 13.5865 -0.2956 -0.0 0.0 -0.0 -1.67359 21.3247 0.0854449 -15.5186 -33.9791 67.0888 0.823418 -22.1903 0.161478 -85.1193 -8.46684 5.18163 0.915492 7.56409 9.13088 -0.0 0.0 -0.0 6.65657 23.0408 -11.7645 -10.7053 11.1564 -64.1616 2.31176 48.8648 -1.05035 12.0557 -0.266327 1.51415 1.19315 1.66283 -7.31745 0.0 0.0 0.0 14.2887 21.5322 -10.2721 -37.5211 -0.316639 5.64811 9.95903 1.80993 -1.42378 -4.20832 0.0 0.0 -0.0 0.0 -0.0 16.8497 14.6811 -6.22317 -19.0083 -0.306121 -2.88755 11.3108 11.0456 1.69079 -36.2756 0.0 0.0 0.0 0.0 0.0 
2506.38221063 764.222 -1547.8570606 7.25350350287 71.1693377075 -8.38259296012 0.0854762 0.0480033 0.941296 0.0859693 -0.0119884 0.942443 0.0859762 -0.208439 0.919184 0.0848016 -0.060662 0.940566 -2.90766 7.03436 -2.11293 -2.78977 14.424 -1.19928 -0.0 0.0 -0.0 -1.49131 20.8655 0.275949 -16.4166 -33.9588 67.7549 0.755305 -20.5136 0.136676 -85.2283 -8.48045 5.17892 0.838583 7.20661 8.48639 -0.0 0.0 -0.0 6.74928 22.5941 -12.0082 -9.42731 10.4885 -64.1359 2.39972 49.9214 -1.11713 13.0629 -0.274055 1.64257 1.14659 2.2166 -6.77503 0.0 0.0 0.0 15.2004 22.1104 -10.4965 -32.7346 -0.0703521 4.95544 5.7761 4.43988 -0.834018 -5.16901 0.0 0.0 -0.0 0.0 -0.0 15.893 14.6807 -6.39024 -17.561 -0.316698 -2.66576 8.52315 8.52221 1.26979 -34.7109 0.0 0.0 0.0 0.0 0.0 
2499.47658576 763.198 -1540.12802748 9.49705016558 71.5251062465 -10.0103005432 -0.0517366 0.144339 0.877652 -0.0513123 0.0882013 0.885057 -0.0497136 -0.100558 0.883739 -0.0508013 0.0402683 0.888529 -2.48257 7.27336 -2.78971 -2.32519 15.3654 -1.93103 -0.0 0.0 -0.0 -1.00704 20.5481 0.930937 -16.9351 -33.9867 68.3391 0.697791 -19.0685 0.117201 -85.2688 -8.48551 5.1779 0.847321 6.9081 8.42786 -0.0 0.0 -0.0 6.90237 22.2395 -12.3749 -9.35209 10.3966 -64.8217 2.44967 50.5014 -1.15551 13.7575 -0.278069 1.73119 1.12879 2.60825 -6.49307 0.0 0.0 0.0 15.8402 22.5399 -10.5629 -29.8279 0.0506186 4.52585 2.5043 7.55553 -0.364219 -5.84142 0.0 0.0 -0.0 0.0 -0.0 14.6055 14.4949 -6.23248 -14.4346 -0.32041 -2.18615 6.56274 6.74028 0.975879 -33.3074 0.0 0.0 0.0 0.0 0.0 
2489.11376193 759.931 -1531.01959347 8.37451948992 70.9051238294 -8.44418738858 -0.119049 0.106208 0.982375 -0.118513 0.043485 0.987142 -0.117485 -0.166971 0.973891 -0.118809 -0.0110758 0.988037 -2.90514 7.35082 -3.8217 -2.7162 16.326 -2.94659 -0.0 0.0 -0.0 -0.807326 20.2529 1.18137 -17.7681 -34.1338 69.2457 0.686998 -18.7944 0.113699 -85.2186 -8.47924 5.17916 0.485225 7.46238 6.2697 -0.0 0.0 -0.0 5.43427 23.4383 -9.06225 -9.83525 10.1262 -65.4967 2.902 55.166 -1.51627 16.9921 -0.282599 2.14425 1.64694 1.85999 -10.3179 0.0 0.0 0.0 16.3515 23.1875 -11.2614 -26.3657 0.166024 4.00711 8.70502 11.3927 -1.24499 -6.66442 0.0 0.0 -0.0 0.0 -0.0 12.7804 13.0912 -5.72408 -10.9908 -0.294217 -1.65848 9.90975 2.09889 1.43069 -30.5748 0.0 0.0 0.0 0.0 0.0 
2474.34515433 760.866 -1527.4790348 9.90338013141 70.699985056 -9.13442120527 -0.336822 -0.0595203 0.831922 -0.336443 -0.112335 0.826449 -0.337917 -0.288169 0.782688 -0.338736 -0.160946 0.818373 -3.39906 6.76663 -5.69764 -3.15353 16.7211 -4.92208 -0.0 0.0 -0.0 -0.327755 19.236 1.75855 -18.1486 -34.7712 69.3862 0.663268 -18.1887 0.106173 -85.1747 -8.47375 5.18026 0.156736 7.12406 3.98975 -0.0 0.0 -0.0 4.69841 25.2074 -7.28794 -10.3393 10.2795 -66.517 2.87873 54.9496 -1.4972 18.7669 -0.275176 2.37081 1.69273 -0.510014 -11.587 0.0 0.0 0.0 14.5297 26.1848 -11.0688 -18.8228 0.307789 2.85915 10.3678 16.4209 -1.48835 -7.25943 0.0 0.0 -0.0 0.0 -0.0 11.3156 12.6219 -5.93755 -9.65446 -0.27552 -1.45429 11.2463 1.40774 1.61231 -26.984 0.0 0.0 0.0 0.0 0.0 
2473.94829112 760.866 -1525.00744682 10.1211114417 71.1267212211 -9.36481694655 -0.336822 -0.0595203 0.831922 -0.336443 -0.112335 0.826449 -0.337917 -0.288169 0.782688 -0.338736 -0.160946 0.818373 -3.39906 6.76663 -5.69764 -3.15353 16.7211 -4.92208 -0.0 0.0 -0.0 -0.327755 19.236 1.75855 -18.1486 -34.7712 69.3862 0.663268 -18.1887 0.106173 -85.1747 -8.47375 5.18026 0.156736 7.12406 3.98975 -0.0 0.0 -0.0 4.69841 25.2074 -7.28794 -10.3393 10.2795 -66.517 2.87873 54.9496 -1.4972 18.7669 -0.275176 2.37081 1.69273 -0.510014 -11.587 0.0 0.0 0.0 14.5297 26.1848 -11.0688 -18.8228 0.307789 2.85915 10.3678 16.4209 -1.48835 -7.25943 0.0 0.0 -0.0 0.0 -0.0 11.3156 12.6219 -5.93755 -9.65446 -0.27552 -1.45429 11.2463 1.40774 1.61231 -26.984 0.0 0.0 0.0 0.0 0.0 
2466.64402907 765.032 -1521.26767977 10.3657770586 71.0375626802 -9.40408261343 -0.405234 -0.143863 0.766942 -0.404928 -0.192373 0.756235 -0.407384 -0.352001 0.696417 -0.407982 -0.237601 0.743266 -3.3052 6.61173 -6.23113 -3.03155 16.8514 -5.51977 -0.0 0.0 -0.0 -0.0463153 18.8292 2.13115 -18.1525 -35.0145 69.4277 0.648564 -17.8112 0.101629 -85.0731 -8.46107 5.18278 0.140321 6.65792 3.69279 -0.0 0.0 -0.0 4.59269 25.25 -7.05391 -10.5138 10.2846 -66.8817 2.77619 53.9675 -1.41375 18.8429 -0.274702 2.3805 1.62507 -1.19477 -11.3989 0.0 0.0 0.0 13.4909 27.9365 -11.1329 -16.7095 0.320302 2.53516 8.74221 18.0927 -1.26765 -6.87796 0.0 0.0 -0.0 0.0 -0.0 11.3172 12.6228 -5.90987 -9.76226 -0.277205 -1.47074 10.6003 1.92553 1.52569 -26.286 0.0 0.0 0.0 0.0 0.0 
2462.16621131 760.572 -1518.30342785 11.5129074026 71.493971563 -10.0200606794 -0.480447 -0.204309 0.719632 -0.480194 -0.249686 0.705174 -0.483229 -0.397699 0.633602 -0.48367 -0.292644 0.688457 -3.25627 6.50343 -6.60008 -2.96262 16.9401 -5.93141 -0.0 0.0 -0.0 0.153895 18.5465 2.40071 -18.1458 -35.1872 69.4768 0.638307 -17.547 0.0985139 -85.0058 -8.45265 5.18444 0.129013 6.33116 3.48541 -0.0 0.0 -0.0 4.49922 25.1314 -6.86291 -10.8352 10.1897 -67.1651 2.69234 53.1284 -1.34631 18.8961 -0.274362 2.38729 1.57399 -1.68537 -11.2463 0.0 0.0 0.0 12.7211 29.18 -11.092 -15.2305 0.321948 2.30826 7.59944 19.2129 -1.10987 -6.60437 0.0 0.0 -0.0 0.0 -0.0 11.9552 12.5577 -6.53366 -9.8331 -0.278295 -1.48156 10.1033 2.29735 1.4585 -25.7986 0.0 0.0 0.0 0.0 0.0 
2453.8231999 752.042 -1517.70073657 11.1693749925 70.6724663103 -9.10759419423 -0.458093 -0.164484 0.428563 -0.458011 -0.191421 0.417228 -0.459407 -0.277781 0.365458 -0.459528 -0.216578 0.404741 -2.58717 6.31816 -7.56527 -2.21174 17.3697 -7.09332 -0.0 0.0 -0.0 0.350169 17.5147 2.58961 -17.7995 -35.4754 69.5978 0.636036 -17.4884 0.0978301 -84.9579 -8.44667 5.18561 0.311122 5.04019 4.15393 -0.0 0.0 -0.0 4.51061 25.0372 -6.89718 -11.0905 10.1651 -67.6816 2.45124 50.5194 -1.15673 18.4063 -0.277252 2.32481 1.53653 -1.91758 -11.0841 0.0 0.0 0.0 11.8311 30.2199 -10.3454 -14.2725 0.319888 2.16128 7.53563 18.4166 -1.09786 -5.43653 0.0 0.0 -0.0 0.0 -0.0 12.341 12.5943 -7.08588 -14.8124 -0.321351 -2.24411 11.6064 2.82334 1.66881 -23.0426 0.0 0.0 0.0 0.0 0.0 
2448.43669408 761.797 -1525.05603798 10.7192712368 69.1130224393 -8.2867202452 -0.457475 -0.177548 0.30794 -0.457443 -0.196783 0.296019 -0.458476 -0.256582 0.246 -0.458497 -0.214511 0.283435 -3.05646 6.54268 -7.44893 -2.69956 17.6723 -6.85672 -0.0 0.0 -0.0 0.493681 16.6027 2.7182 -17.1131 -35.7997 69.8347 0.637118 -17.5163 0.0981556 -84.9534 -8.4461 5.18573 0.444412 4.13816 4.66685 -0.0 0.0 -0.0 4.34395 24.3671 -6.60269 -11.485 10.2345 -67.9282 2.23826 47.9462 -0.995381 18.0673 -0.27894 2.28154 1.52462 -2.15028 -11.0952 0.0 0.0 0.0 10.9493 31.0625 -10.1371 -13.5975 0.316961 2.05776 7.30657 16.7191 -1.05995 -4.70119 0.0 0.0 -0.0 0.0 -0.0 13.4833 12.6226 -7.21617 -17.8187 -0.315225 -2.70527 11.9399 3.14617 1.71638 -21.2174 0.0 0.0 0.0 0.0 0.0 
2443.77147653 761.037 -1530.57970415 10.0991563467 67.5136101147 -7.42573733097 -0.48043 -0.191951 0.17755 -0.480435 -0.20286 0.164976 -0.481042 -0.233991 0.116693 -0.480998 -0.212625 0.152183 -3.39427 6.70977 -7.33066 -3.05337 17.8751 -6.64816 -0.0 0.0 -0.0 0.498076 15.8916 2.65313 -16.7833 -35.9892 69.7326 0.635883 -17.4844 0.0977841 -84.9494 -8.4456 5.18582 0.538346 3.50056 5.03032 -0.0 0.0 -0.0 4.23698 23.8994 -6.41717 -11.7539 10.2927 -68.1145 2.10054 46.1327 -0.894581 17.8297 -0.27997 2.25121 1.51547 -2.30506 -11.0942 0.0 0.0 0.0 10.3308 31.6477 -9.99231 -13.1068 0.314068 1.98252 7.11431 15.4879 -1.02952 -4.19313 0.0 0.0 -0.0 0.0 -0.0 14.2822 12.5882 -7.29152 -19.9139 -0.296654 -3.02619 12.0905 3.33539 1.73811 -19.944 0.0 0.0 0.0 0.0 0.0 
